# Blender v2.92.0 OBJ File: ''
# www.blender.org
mtllib calle.mtl
o Plane.001
v 12.000000 -0.000000 0.500000
v 10.000000 0.000000 -0.500000
v 10.000000 -0.000000 0.500000
v -10.000000 -0.000000 0.500000
v -12.000000 0.000000 -0.500000
v -12.000000 -0.000000 0.500000
v -8.000000 -0.000000 0.500000
v -10.000000 0.000000 -0.500000
v -6.000000 -0.000000 0.500000
v -8.000000 0.000000 -0.500000
v -4.000000 -0.000000 0.500000
v -6.000000 0.000000 -0.500000
v -2.000000 -0.000000 0.500000
v -4.000000 0.000000 -0.500000
v 0.000000 -0.000000 0.500000
v -2.000000 0.000000 -0.500000
v 2.000000 -0.000000 0.500000
v 0.000000 0.000000 -0.500000
v 4.000000 -0.000000 0.500000
v 2.000000 0.000000 -0.500000
v 6.000000 -0.000000 0.500000
v 4.000000 0.000000 -0.500000
v 8.000000 -0.000000 0.500000
v 6.000000 0.000000 -0.500000
v 8.000000 0.000000 -0.500000
v 12.000000 0.000000 -0.500000
vt 0.937500 0.000000
vt 0.854167 1.000000
vt 0.854167 0.000000
vt 0.645833 0.000000
vt 0.562500 1.000000
vt 0.562500 0.000000
vt 0.729167 0.000000
vt 0.645833 1.000000
vt 0.812500 0.000000
vt 0.729167 1.000000
vt 0.895833 0.000000
vt 0.812500 1.000000
vt 0.104167 0.000000
vt 0.020833 1.000000
vt 0.020833 0.000000
vt 0.187500 0.000000
vt 0.104167 1.000000
vt 0.270833 0.000000
vt 0.187500 1.000000
vt 0.354167 0.000000
vt 0.270833 1.000000
vt 0.687500 0.000000
vt 0.604167 1.000000
vt 0.604167 0.000000
vt 0.770833 0.000000
vt 0.687500 1.000000
vt 0.770833 1.000000
vt 0.937500 1.000000
vt 0.895833 1.000000
vt 0.354167 1.000000
vn 0.0000 1.0000 0.0000
g Plane.001_Plane.001_Material.003
usemtl Material.003
s 1
f 1/1/1 2/2/1 3/3/1
f 4/4/1 5/5/1 6/6/1
f 7/7/1 8/8/1 4/4/1
f 9/9/1 10/10/1 7/7/1
f 11/11/1 12/12/1 9/9/1
f 13/13/1 14/14/1 11/15/1
f 15/16/1 16/17/1 13/13/1
f 17/18/1 18/19/1 15/16/1
f 19/20/1 20/21/1 17/18/1
f 21/22/1 22/23/1 19/24/1
f 23/25/1 24/26/1 21/22/1
f 3/3/1 25/27/1 23/25/1
f 1/1/1 26/28/1 2/2/1
f 4/4/1 8/8/1 5/5/1
f 7/7/1 10/10/1 8/8/1
f 9/9/1 12/12/1 10/10/1
f 11/11/1 14/29/1 12/12/1
f 13/13/1 16/17/1 14/14/1
f 15/16/1 18/19/1 16/17/1
f 17/18/1 20/21/1 18/19/1
f 19/20/1 22/30/1 20/21/1
f 21/22/1 24/26/1 22/23/1
f 23/25/1 25/27/1 24/26/1
f 3/3/1 2/2/1 25/27/1
