# Blender v2.92.0 OBJ File: ''
# www.blender.org
mtllib pollo.mtl
o chicken_nugget
v 0.037466 0.217404 0.145380
v 0.037466 0.155118 0.176523
v 0.037466 0.155118 0.145380
v 0.037466 0.217404 0.176523
v 0.099751 0.123976 -0.041477
v 0.099751 0.030547 -0.010334
v 0.099751 0.030547 -0.041477
v 0.099751 0.123976 -0.010334
v -0.055963 0.123976 -0.041477
v -0.055963 0.030547 -0.010334
v -0.055963 0.030547 -0.041477
v -0.055963 0.123976 -0.010334
v 0.130894 0.404261 -0.166046
v 0.130894 0.217404 -0.103761
v 0.130894 0.123976 -0.166047
v 0.130894 0.155119 -0.103761
v 0.130894 0.404261 0.020809
v 0.130894 0.155118 0.020809
v 0.130894 0.248547 0.020809
v 0.130894 0.123976 0.145380
v 0.130894 0.217404 0.020809
v 0.130894 0.248547 0.145380
v 0.162037 0.217404 -0.103761
v 0.162037 0.155118 0.020809
v 0.162037 0.155119 -0.103761
v 0.162037 0.217404 0.020809
v -0.024820 0.155118 0.176523
v -0.024820 0.217404 0.145380
v -0.024820 0.155118 0.145380
v -0.024820 0.217404 0.176523
v 0.068609 0.030547 -0.010334
v 0.068609 0.123976 -0.041477
v 0.068609 0.030547 -0.041477
v 0.068609 0.123976 -0.010334
v -0.087105 0.030547 -0.010334
v -0.087105 0.123976 -0.041477
v -0.087105 0.030547 -0.041477
v -0.087105 0.123976 -0.010334
v -0.118248 0.217404 -0.103761
v -0.118248 0.404261 -0.166046
v -0.118248 0.123976 -0.166047
v -0.118248 0.155119 -0.103761
v -0.118248 0.404261 0.020809
v -0.118248 0.155118 0.020809
v -0.118248 0.248547 0.020809
v -0.118248 0.123976 0.145380
v -0.118248 0.217404 0.020809
v -0.118248 0.248547 0.145380
v -0.149391 0.155118 0.020809
v -0.149391 0.217404 -0.103761
v -0.149391 0.155119 -0.103761
v -0.149391 0.217404 0.020809
v -0.024820 0.404261 -0.103761
v 0.037466 0.404261 -0.103761
v -0.024820 0.404261 -0.041477
v 0.037466 0.404261 -0.041477
v -0.024820 0.248547 -0.166047
v 0.037466 0.248547 -0.166047
v -0.024820 0.341975 -0.166046
v 0.037466 0.341975 -0.166046
v 0.037466 0.341975 -0.228332
v 0.037466 0.279690 -0.197189
v 0.037466 0.279690 -0.228332
v 0.037466 0.248547 -0.197189
v 0.068609 0.030547 -0.134904
v 0.068609 -0.000594 -0.072618
v 0.068609 -0.000595 -0.134904
v 0.068609 0.030547 -0.072618
v -0.024820 0.030547 -0.134904
v -0.024820 -0.000595 0.020809
v -0.024820 -0.000594 -0.134904
v -0.024820 0.030547 0.020809
v 0.130894 0.030547 -0.134904
v 0.130894 -0.000594 0.020809
v 0.130894 -0.000594 -0.134904
v 0.130894 0.030547 0.020809
v -0.087105 0.030547 -0.134904
v -0.087105 -0.000594 -0.072618
v -0.087105 -0.000595 -0.134904
v -0.087105 0.030547 -0.072618
v -0.024820 0.279690 -0.197189
v -0.024820 0.341975 -0.228332
v -0.024820 0.279690 -0.228332
v -0.024820 0.248547 -0.197189
v 0.037466 -0.000594 0.020809
v 0.037466 0.030547 -0.134904
v 0.037466 -0.000594 -0.134904
v 0.037466 0.030547 0.020809
v -0.055963 -0.000594 -0.072618
v -0.055963 0.030547 -0.134904
v -0.055963 -0.000594 -0.134904
v -0.055963 0.030547 -0.072618
v -0.118248 -0.000594 0.020809
v -0.118248 0.030547 -0.134904
v -0.118248 -0.000595 -0.134904
v -0.118248 0.030547 0.020809
v 0.099751 -0.000594 -0.072618
v 0.099751 0.030547 -0.134904
v 0.099751 -0.000594 -0.134904
v 0.099751 0.030547 -0.072618
v 0.037466 0.466547 -0.103761
v 0.037466 0.435404 -0.072620
v 0.037466 0.466547 -0.072620
v 0.037466 0.435404 -0.041477
v -0.024820 0.435404 -0.072620
v -0.024820 0.466547 -0.103761
v -0.024820 0.466547 -0.072620
v -0.024820 0.435404 -0.041477
vn 0.1789 0.1789 0.9675
vn 0.4082 -0.4083 0.8165
vn 0.1306 -0.1306 0.9828
vn 0.4083 0.4082 0.8165
vn 0.3878 -0.8362 -0.3878
vn 0.5774 0.5773 0.5773
vn 0.5775 0.5773 -0.5773
vn 0.1270 -0.9837 0.1270
vn 0.0706 -0.9950 -0.0706
vn 0.0615 -0.9962 0.0615
vn 0.8200 0.3975 -0.4118
vn 0.9970 0.0688 -0.0344
vn 0.2919 -0.5652 -0.7716
vn 0.9371 -0.3123 -0.1562
vn 0.5806 0.2529 0.7739
vn 0.9866 -0.1459 0.0729
vn 0.5115 0.5368 0.6710
vn 0.4224 -0.8374 0.3469
vn 0.9784 0.1851 0.0925
vn 0.3913 0.8864 0.2475
vn 0.8729 0.4364 -0.2182
vn 0.8729 -0.4364 0.2182
vn 0.8729 -0.4364 -0.2182
vn 0.8729 0.4364 0.2182
vn -0.4082 -0.4083 0.8165
vn -0.0951 0.0951 0.9909
vn -0.0793 -0.0793 0.9937
vn -0.4082 0.4083 0.8165
vn -0.4364 0.7869 0.4364
vn -0.1076 -0.9884 -0.1076
vn -0.5774 0.5774 -0.5773
vn -0.0912 -0.9916 0.0912
vn -0.3878 -0.8362 -0.3879
vn -0.1270 -0.9837 0.1270
vn -0.9970 0.0688 -0.0344
vn -0.7933 0.4236 -0.4373
vn -0.2476 -0.6119 -0.7512
vn -0.9370 -0.3123 -0.1562
vn -0.5759 0.2813 0.7676
vn -0.9866 -0.1459 0.0729
vn -0.5115 0.5368 0.6710
vn -0.3576 -0.8821 0.3067
vn -0.9784 0.1850 0.0925
vn -0.3900 0.8834 0.2598
vn -0.8729 -0.4364 0.2182
vn -0.8729 0.4364 -0.2182
vn -0.8729 -0.4364 -0.2182
vn -0.8729 0.4364 0.2182
vn -0.0463 0.9946 -0.0927
vn 0.0749 0.9859 -0.1498
vn -0.0477 0.9968 0.0636
vn 0.1003 0.9859 0.1337
vn -0.0279 -0.0279 -0.9992
vn 0.0416 -0.0416 -0.9983
vn -0.1032 0.1115 -0.9884
vn 0.1886 0.2036 -0.9607
vn 0.5162 0.6056 -0.6056
vn 0.9413 -0.2387 -0.2387
vn 0.4083 -0.4083 -0.8164
vn 0.3333 -0.6667 -0.6667
vn 0.6667 0.6667 -0.3333
vn 0.1304 -0.9893 -0.0652
vn 0.6667 -0.6667 -0.3333
vn 0.2092 0.9723 -0.1046
vn 0.8534 0.4925 -0.1707
vn 0.5413 -0.7756 0.3248
vn 0.8534 -0.4925 -0.1707
vn 0.7925 0.3819 0.4755
vn -0.9413 -0.2387 -0.2387
vn -0.5162 0.6056 -0.6056
vn -0.4082 -0.4083 -0.8165
vn -0.3334 -0.6667 -0.6666
vn -0.4977 -0.8143 0.2986
vn -0.8534 0.4925 -0.1707
vn -0.8534 -0.4925 -0.1707
vn -0.7720 0.4353 0.4632
vn -0.1678 -0.9822 -0.0839
vn -0.6667 0.6667 -0.3333
vn -0.6667 -0.6667 -0.3333
vn -0.2092 0.9723 -0.1046
vn 0.3180 0.4240 -0.8480
vn 0.8704 0.3482 0.3482
vn 0.3334 0.6666 0.6667
vn -0.8704 0.3482 0.3482
vn -0.3180 0.4240 -0.8480
vn -0.3333 0.6667 0.6667
g chicken_nugget_chicken_nugget_ayamSG
usemtl ayamSG
s 1
f 1//1 2//2 3//3
f 1//1 4//4 2//2
f 5//5 6//6 7//7
f 5//5 8//8 6//6
f 9//9 10//6 11//7
f 9//9 12//10 10//6
f 13//11 14//12 15//13
f 14//12 16//14 15//13
f 14//12 13//11 17//15
f 15//13 16//14 18//16
f 14//12 17//15 19//17
f 20//18 15//13 18//16
f 19//17 21//19 14//12
f 18//16 21//19 20//18
f 21//19 19//17 22//20
f 20//18 21//19 22//20
f 23//21 24//22 25//23
f 23//21 26//24 24//22
f 27//25 28//26 29//27
f 30//28 28//26 27//25
f 31//29 32//30 33//31
f 34//32 32//30 31//29
f 35//29 36//33 37//31
f 38//34 36//33 35//29
f 39//35 40//36 41//37
f 42//38 39//35 41//37
f 40//36 39//35 43//39
f 42//38 41//37 44//40
f 43//39 39//35 45//41
f 41//37 46//42 44//40
f 47//43 45//41 39//35
f 47//43 44//40 46//42
f 45//41 47//43 48//44
f 47//43 46//42 48//44
f 49//45 50//46 51//47
f 52//48 50//46 49//45
f 41//37 15//13 9//9
f 36//33 41//37 9//9
f 32//30 9//9 15//13
f 41//37 36//33 38//34
f 5//5 32//30 15//13
f 34//32 9//9 32//30
f 41//37 38//34 46//42
f 15//13 8//8 5//5
f 12//10 9//9 34//32
f 38//34 12//10 46//42
f 20//18 8//8 15//13
f 12//10 34//32 20//18
f 12//10 20//18 46//42
f 34//32 8//8 20//18
f 44//40 51//47 42//38
f 49//45 51//47 44//40
f 2//2 29//27 3//3
f 27//25 29//27 2//2
f 24//22 16//14 25//23
f 18//16 16//14 24//22
f 50//46 47//43 39//35
f 50//46 52//48 47//43
f 28//26 4//4 1//1
f 28//26 30//28 4//4
f 14//12 26//24 23//21
f 14//12 21//19 26//24
f 45//41 22//20 19//17
f 45//41 48//44 22//20
f 40//36 53//49 13//11
f 53//49 54//50 13//11
f 40//36 43//39 53//49
f 54//50 17//15 13//11
f 43//39 55//51 53//49
f 54//50 56//52 17//15
f 55//51 43//39 17//15
f 56//52 55//51 17//15
f 37//31 9//9 11//7
f 37//31 36//33 9//9
f 33//31 5//5 7//7
f 33//31 32//30 5//5
f 51//47 39//35 42//38
f 51//47 50//46 39//35
f 16//14 23//21 25//23
f 16//14 14//12 23//21
f 41//37 57//53 15//13
f 57//53 58//54 15//13
f 41//37 40//36 57//53
f 58//54 13//11 15//13
f 40//36 59//55 57//53
f 58//54 60//56 13//11
f 59//55 40//36 13//11
f 60//56 59//55 13//11
f 47//43 49//45 44//40
f 52//48 49//45 47//43
f 17//15 45//41 19//17
f 43//39 45//41 17//15
f 26//24 18//16 24//22
f 21//19 18//16 26//24
f 12//10 35//29 10//6
f 38//34 35//29 12//10
f 8//8 31//29 6//6
f 34//32 31//29 8//8
f 29//27 46//42 20//18
f 3//3 29//27 20//18
f 48//44 46//42 29//27
f 22//20 3//3 20//18
f 28//26 48//44 29//27
f 1//1 3//3 22//20
f 48//44 28//26 22//20
f 28//26 1//1 22//20
f 4//4 27//25 2//2
f 30//28 27//25 4//4
g chicken_nugget_chicken_nugget_pico
usemtl pico
f 61//57 62//58 63//59
f 61//57 60//56 62//58
f 62//58 60//56 58//54
f 62//58 58//54 64//60
f 65//61 66//62 67//63
f 65//61 68//64 66//62
f 69//65 70//66 71//67
f 69//65 72//68 70//66
f 73//65 74//66 75//67
f 73//65 76//68 74//66
f 77//61 78//62 79//63
f 77//61 80//64 78//62
f 81//69 82//70 83//71
f 59//55 82//70 81//69
f 59//55 81//69 57//53
f 57//53 81//69 84//72
f 85//73 86//74 87//75
f 88//76 86//74 85//73
f 89//77 90//78 91//79
f 92//80 90//78 89//77
f 93//73 94//74 95//75
f 96//76 94//74 93//73
f 97//77 98//78 99//79
f 100//80 98//78 97//77
f 78//62 95//75 79//63
f 93//73 95//75 78//62
f 93//73 78//62 70//66
f 78//62 89//77 70//66
f 89//77 71//67 70//66
f 91//79 71//67 89//77
f 66//62 87//75 67//63
f 85//73 87//75 66//62
f 85//73 66//62 74//66
f 66//62 97//77 74//66
f 97//77 75//67 74//66
f 99//79 75//67 97//77
f 58//54 84//72 64//60
f 57//53 84//72 58//54
f 62//58 83//71 63//59
f 81//69 83//71 62//58
f 94//74 80//64 77//61
f 94//74 96//76 80//64
f 96//76 37//31 80//64
f 80//64 37//31 11//7
f 96//76 35//29 37//31
f 80//64 11//7 92//80
f 35//29 96//76 72//68
f 92//80 11//7 72//68
f 10//6 35//29 72//68
f 11//7 10//6 72//68
f 69//65 92//80 72//68
f 69//65 90//78 92//80
f 86//74 68//64 65//61
f 86//74 88//76 68//64
f 88//76 33//31 68//64
f 68//64 33//31 7//7
f 88//76 31//29 33//31
f 68//64 7//7 100//80
f 31//29 88//76 76//68
f 100//80 7//7 76//68
f 6//6 31//29 76//68
f 7//7 6//6 76//68
f 73//65 100//80 76//68
f 73//65 98//78 100//80
f 82//70 60//56 61//57
f 82//70 59//55 60//56
f 78//62 92//80 89//77
f 78//62 80//64 92//80
f 66//62 100//80 97//77
f 66//62 68//64 100//80
f 95//75 77//61 79//63
f 95//75 94//74 77//61
f 91//79 69//65 71//67
f 91//79 90//78 69//65
f 87//75 65//61 67//63
f 87//75 86//74 65//61
f 99//79 73//65 75//67
f 99//79 98//78 73//65
f 84//72 62//58 64//60
f 84//72 81//69 62//58
f 83//71 61//57 63//59
f 83//71 82//70 61//57
f 72//68 93//73 70//66
f 96//76 93//73 72//68
f 76//68 85//73 74//66
f 88//76 85//73 76//68
g chicken_nugget_chicken_nugget_pelo
usemtl pelo
f 101//81 102//82 54//50
f 102//82 56//52 54//50
f 101//81 103//83 102//82
f 102//82 104//83 56//52
f 105//84 106//85 53//49
f 55//51 105//84 53//49
f 107//86 106//85 105//84
f 108//86 105//84 55//51
f 105//84 104//83 102//82
f 105//84 108//86 104//83
f 106//85 103//83 101//81
f 106//85 107//86 103//83
f 53//49 101//81 54//50
f 53//49 106//85 101//81
f 104//83 55//51 56//52
f 108//86 55//51 104//83
f 103//83 105//84 102//82
f 107//86 105//84 103//83
